HIERARCHY
ROOT Hips
{
	OFFSET 0.000000 0.000000 0.000000
	CHANNELS 6 Xposition Yposition Zposition Xrotation Yrotation Zrotation
	JOINT LeftUpLeg_virtual
	{
		OFFSET 0.000000 0.000000 0.000000
		CHANNELS 3 Xrotation Yrotation Zrotation
		JOINT LeftUpLeg
		{
			OFFSET 13.026900 -6.336304 -1.092800
			CHANNELS 3 Xrotation Yrotation Zrotation
			JOINT LeftLeg
			{
				OFFSET 0.524474 -46.096886 9.782700
				CHANNELS 3 Xrotation Yrotation Zrotation
				JOINT LeftFoot
				{
					OFFSET -0.524474 -53.427422 -12.948200
					CHANNELS 3 Xrotation Yrotation Zrotation
					JOINT LeftToeBase
					{
						OFFSET 0.192200 -14.009700 16.364100
						CHANNELS 3 Xrotation Yrotation Zrotation
						JOINT LeftToe_End
						{
							OFFSET -1.784700 -0.561700 9.474800
							CHANNELS 3 Xrotation Yrotation Zrotation
							End Site
							{
								OFFSET 0 0 0
							}
						}
					}
				}
			}
		}
	}
	JOINT RightUpLeg_virtual
	{
		OFFSET 0.000000 0.000000 0.000000
		CHANNELS 3 Xrotation Yrotation Zrotation
		JOINT RightUpLeg
		{
			OFFSET -12.883000 -6.336304 -1.092800
			CHANNELS 3 Xrotation Yrotation Zrotation
			JOINT RightLeg
			{
				OFFSET -0.524587 -46.096825 9.782800
				CHANNELS 3 Xrotation Yrotation Zrotation
				JOINT RightFoot
				{
					OFFSET 0.524587 -53.427383 -12.948300
					CHANNELS 3 Xrotation Yrotation Zrotation
					JOINT RightToeBase
					{
						OFFSET -0.192200 -14.009700 16.364100
						CHANNELS 3 Xrotation Yrotation Zrotation
						JOINT RightToe_End
						{
							OFFSET 1.784700 -0.561700 9.474800
							CHANNELS 3 Xrotation Yrotation Zrotation
							End Site
							{
								OFFSET 0 0 0
							}
						}
					}
				}
			}
		}
	}
	JOINT Spine_virtual
	{
		OFFSET 0.000000 0.000000 0.000000
		CHANNELS 3 Xrotation Yrotation Zrotation
		JOINT Spine
		{
			OFFSET 0.072000 7.257294 -0.789700
			CHANNELS 3 Xrotation Yrotation Zrotation
			JOINT Spine1
			{
				OFFSET 0.000000 12.508769 -0.658067
				CHANNELS 3 Xrotation Yrotation Zrotation
				JOINT Spine1_split
				{
					OFFSET 0.000000 12.508769 -0.658067
					CHANNELS 3 Xrotation Yrotation Zrotation
					JOINT Spine2
					{
						OFFSET 0.000000 12.508769 -0.658067
						CHANNELS 3 Xrotation Yrotation Zrotation
						JOINT Neck_virtual
						{
							OFFSET 0.000000 0.000000 0.000000
							CHANNELS 3 Xrotation Yrotation Zrotation
							JOINT Neck
							{
								OFFSET 0.000000 14.033295 7.520400
								CHANNELS 3 Xrotation Yrotation Zrotation
								JOINT Head
								{
									OFFSET 0.000000 8.198502 5.703100
									CHANNELS 3 Xrotation Yrotation Zrotation
									JOINT HeadTop_End
									{
										OFFSET 0.000000 17.760803 13.332701
										CHANNELS 3 Xrotation Yrotation Zrotation
										End Site
										{
											OFFSET 0 0 0
										}
									}
								}
							}
						}
						JOINT LeftShoulder_virtual
						{
							OFFSET 0.000000 0.000000 0.000000
							CHANNELS 3 Xrotation Yrotation Zrotation
							JOINT LeftShoulder
							{
								OFFSET 6.292450 5.785301 -0.669000
								CHANNELS 3 Xrotation Yrotation Zrotation
								JOINT LeftShoulder_split
								{
									OFFSET 6.292450 5.785301 -0.669000
									CHANNELS 3 Xrotation Yrotation Zrotation
									JOINT LeftArm
									{
										OFFSET 13.907140 -6.093903 1.965100
										CHANNELS 3 Xrotation Yrotation Zrotation
										JOINT LeftForeArm
										{
											OFFSET 34.140198 0.000000 0.000000
											CHANNELS 3 Xrotation Yrotation Zrotation
											JOINT LeftHand
											{
												OFFSET 40.960209 0.000000 0.000000
												CHANNELS 3 Xrotation Yrotation Zrotation
												End Site
												{
													OFFSET 0 0 0
												}
											}
										}
									}
								}
							}
						}
						JOINT RightShoulder_virtual
						{
							OFFSET 0.000000 0.000000 0.000000
							CHANNELS 3 Xrotation Yrotation Zrotation
							JOINT RightShoulder
							{
								OFFSET -6.292450 5.785301 -0.669000
								CHANNELS 3 Xrotation Yrotation Zrotation
								JOINT RightShoulder_split
								{
									OFFSET -6.292450 5.785301 -0.669000
									CHANNELS 3 Xrotation Yrotation Zrotation
									JOINT RightArm
									{
										OFFSET -13.907140 -6.093903 1.965100
										CHANNELS 3 Xrotation Yrotation Zrotation
										JOINT RightForeArm
										{
											OFFSET -34.140198 0.000000 0.000000
											CHANNELS 3 Xrotation Yrotation Zrotation
											JOINT RightHand
											{
												OFFSET -40.960209 0.000000 0.000000
												CHANNELS 3 Xrotation Yrotation Zrotation
												End Site
												{
													OFFSET 0 0 0
												}
											}
										}
									}
								}
							}
						}
					}
				}
			}
		}
	}
}
MOTION
Frames: 4
Frame Time: 0.03333333
-1.414804 101.046974 9.552803 0.000000 0.000000 0.000000 -23.084011 -5.384824 -2.109112 -99.222957 5.589230 30.777994 122.412331 -19.364122 1.033986 -20.112247 -1.435928 10.012115 -46.495304 -2.668700 -1.962213 0.000000 0.000000 0.000000 -23.084011 -5.384824 -2.109112 -126.283873 -3.633752 -32.472488 127.232573 14.390908 -4.207342 -6.824438 -1.661824 3.681779 -38.850147 6.007508 10.674965 0.000000 0.000000 0.000000 -23.084011 -5.384824 -2.109112 7.693178 -1.186124 -0.049370 15.374073 -1.676404 -0.551058 0.000000 0.000000 0.000000 0.000000 0.000000 0.000000 15.374078 -1.676406 -0.551058 -11.803035 2.538412 0.513533 -20.543585 1.060036 1.922752 0.000000 0.000000 0.000000 15.374078 -1.676406 -0.551058 -0.117971 -1.799430 36.289437 0.000000 0.000000 0.000000 -52.783217 -25.523874 -11.661715 -14.599480 -27.801860 2.187905 0.000000 0.000000 0.000000 15.374078 -1.676406 -0.551058 9.813666 24.196317 -37.946062 0.000000 0.000000 0.000000 -46.242184 23.161335 -4.673693 -22.075472 26.224122 3.020023 0.000000 0.000000 0.000000 
-1.476744 100.531082 9.726982 0.000000 0.000000 0.000000 -22.402537 -5.357171 -2.157535 -100.543649 5.023048 30.197345 122.890567 -18.818597 1.054367 -20.360932 -1.244206 9.606185 -46.159788 -2.756070 -2.168685 0.000000 0.000000 0.000000 -22.402537 -5.357171 -2.157535 -127.296940 -3.379925 -31.328719 127.527254 14.137460 -4.195708 -7.380509 -1.910318 4.372627 -38.305415 5.515459 10.350248 0.000000 0.000000 0.000000 -22.402537 -5.357171 -2.157535 7.525611 -1.099330 0.053106 15.039633 -1.534571 -0.418301 0.000000 0.000000 0.000000 0.000000 0.000000 0.000000 15.039639 -1.534571 -0.418302 -17.769910 2.710621 0.790330 -16.597923 1.605600 1.335112 0.000000 0.000000 0.000000 15.039639 -1.534571 -0.418302 -0.794083 -0.411287 37.037667 0.000000 0.000000 0.000000 -53.107367 -25.119629 -13.105118 -14.758154 -28.996667 2.732934 0.000000 0.000000 0.000000 15.039639 -1.534571 -0.418302 9.273472 22.311033 -38.387897 0.000000 0.000000 0.000000 -46.870903 23.501723 -2.942164 -21.212578 27.007447 1.920320 0.000000 0.000000 0.000000 
-1.536320 100.448586 9.794468 0.000000 0.000000 0.000000 -21.393522 -5.315517 -2.255804 -101.925936 4.476352 29.566823 123.035503 -18.027292 1.060064 -19.814819 -1.081608 9.386301 -46.431455 -2.676303 -2.635139 0.000000 0.000000 0.000000 -21.393522 -5.315517 -2.255804 -128.034095 -3.253323 -30.177224 127.469047 13.617534 -4.110336 -7.363669 -2.032563 4.702866 -38.572592 4.945657 10.564797 0.000000 0.000000 0.000000 -21.393522 -5.315517 -2.255804 7.142071 -1.020834 0.165897 14.274078 -1.394823 -0.228714 0.000000 0.000000 0.000000 0.000000 0.000000 0.000000 14.274073 -1.394824 -0.228715 -23.605299 2.824561 1.341884 -12.221443 2.150335 0.584533 0.000000 0.000000 0.000000 14.274073 -1.394824 -0.228715 -1.351299 0.585396 37.896560 0.000000 0.000000 0.000000 -54.106300 -24.664001 -16.084360 -14.545339 -29.884195 3.360786 0.000000 0.000000 0.000000 14.274073 -1.394824 -0.228715 8.659220 20.554172 -38.660776 0.000000 0.000000 0.000000 -48.041119 24.002523 0.198538 -20.014596 28.209940 0.737823 0.000000 0.000000 0.000000 
-1.580586 101.010323 9.704327 0.000000 0.000000 0.000000 -20.327036 -5.322406 -2.462058 -103.008378 3.967581 29.035004 122.660799 -16.937240 1.058388 -17.853129 -0.918410 9.333921 -48.146526 -2.506484 -3.460481 0.000000 0.000000 0.000000 -20.327036 -5.322406 -2.462058 -128.129172 -3.391466 -29.106424 126.928657 12.665330 -3.994843 -6.300986 -1.954551 4.646321 -40.197173 4.385899 11.524885 0.000000 0.000000 0.000000 -20.327036 -5.322406 -2.462058 6.594390 -0.963505 0.287375 13.181099 -1.275150 0.029299 0.000000 0.000000 0.000000 0.000000 0.000000 0.000000 13.181097 -1.275146 0.029298 -28.539145 2.791945 2.010080 -7.542245 2.563847 -0.228353 0.000000 0.000000 0.000000 13.181097 -1.275146 0.029298 -1.573337 0.806857 38.796875 0.000000 0.000000 0.000000 -55.559873 -23.610612 -20.463436 -13.992635 -30.797016 4.188663 0.000000 0.000000 0.000000 13.181097 -1.275146 0.029298 8.245024 19.384435 -38.889881 0.000000 0.000000 0.000000 -49.481247 24.303628 4.418814 -18.794235 29.794108 -0.558944 0.000000 0.000000 0.000000 
